<?xml version="1.0" encoding="UTF-8" standalone="no"?>
<!DOCTYPE svg PUBLIC "-//W3C//DTD SVG 1.1//EN" "http://www.w3.org/Graphics/SVG/1.1/DTD/svg11.dtd">
<svg width="100%" height="100%" viewBox="0 0 435 605" version="1.1" xmlns="http://www.w3.org/2000/svg" xmlns:xlink="http://www.w3.org/1999/xlink" xml:space="preserve" xmlns:serif="http://www.serif.com/" style="fill-rule:evenodd;clip-rule:evenodd;stroke-linecap:round;stroke-linejoin:round;stroke-miterlimit:1.5;">
    <g transform="matrix(1,0,0,1,-24.2362,-2.63134)">
        <g>
            <g transform="matrix(1,0,0,1,0,11.2822)">
                <path d="M24.236,110.315L459.228,110.315L459.228,472.599L241.105,595.45L24.236,472.599L24.236,110.315Z" style="fill:rgb(174,174,174);"/>
            </g>
            <g transform="matrix(0.850042,0,0,0.566462,30.5041,116.583)">
                <path d="M496,0L0,0L0,613L252.117,829.874L496,613L496,0Z" style="fill:white;stroke:white;stroke-width:4.54px;"/>
            </g>
            <g transform="matrix(1,0,0,1,-33.2198,-32.593)">
                <path d="M274.952,48.89C342.063,48.89 396.549,103.375 396.549,170.487C396.549,237.598 342.063,292.084 274.952,292.084C207.841,292.084 153.355,237.598 153.355,170.487C153.355,103.375 207.841,48.89 274.952,48.89ZM274.952,59.685C336.105,59.685 385.754,109.334 385.754,170.487C385.754,231.64 336.105,281.288 274.952,281.288C213.799,281.288 164.15,231.64 164.15,170.487C164.15,109.334 213.799,59.685 274.952,59.685Z" style="fill:rgb(39,35,62);"/>
            </g>
            <path d="M348.644,110.315L459.228,110.315L459.228,472.599L241.105,595.45L24.236,472.599L24.236,110.315L134.82,110.315C133.681,114.836 132.816,119.467 132.243,124.19L36.677,124.19L36.677,465.751L241.141,581.575L446.787,465.751L446.787,124.19L351.221,124.19C350.648,119.468 349.783,114.836 348.644,110.315ZM325.133,110.315C326.583,114.794 327.688,119.429 328.419,124.19L155.045,124.19C155.776,119.429 156.882,114.794 158.331,110.315L325.133,110.315Z" style="fill:rgb(39,35,62);"/>
            <path d="M45.452,141.013L45.452,131.965L131.571,131.965C131.469,133.928 131.417,135.905 131.417,137.894C131.417,199.47 180.848,249.462 241.732,249.462C302.617,249.462 352.047,199.47 352.047,137.894C352.047,135.905 351.995,133.928 351.893,131.965L438.012,131.965L438.012,141.312L364.476,143.698L438.012,146.085L438.012,158.312L364.476,160.698L438.012,163.085L438.012,174.312L364.476,176.698L438.012,179.085L438.012,191.312L364.476,193.698L438.012,196.085L438.012,207.312L364.476,209.698L438.012,212.085L438.012,224.062L364.476,226.448L438.012,228.835L438.012,240.071L364.476,242.457L438.012,244.844L438.012,460.421L241.166,571.8L45.452,460.421L45.452,244.642L120.489,242.207L45.452,239.772L45.452,228.634L120.489,226.198L45.452,223.763L45.452,211.884L120.489,209.448L45.452,207.013L45.452,195.884L120.489,193.448L45.452,191.013L45.452,178.884L120.489,176.448L45.452,174.013L45.452,162.884L120.489,160.448L45.452,158.013L45.452,145.884L120.489,143.448L45.452,141.013ZM329.268,131.965C329.397,133.924 329.462,135.901 329.462,137.894C329.462,186.863 290.151,226.62 241.732,226.62C193.313,226.62 154.003,186.863 154.003,137.894C154.003,135.901 154.068,133.924 154.196,131.965L329.268,131.965Z" style="fill:rgb(39,35,62);"/>
            <g transform="matrix(1,0,0,1,10,8)">
                <text x="84.588px" y="331.052px" style="font-family:'ArialMT', 'Arial', sans-serif;font-size:76.317px;fill:rgb(18,233,112);">U<tspan x="142.754px 162.762px 187.018px 207.026px 273.652px 319.148px 343.404px " y="331.052px 331.052px 331.052px 331.052px 331.052px 331.052px 331.052px ">ltimate</tspan></text>
            </g>
            <g transform="matrix(1,0,0,1,10.6667,6)">
                <text x="72.588px" y="387.052px" style="font-family:'Oxygen-Regular', 'Oxygen';font-size:54.911px;fill:rgb(199,28,98);">D<tspan x="114.122px 134.851px 165.5px 196.203px 245.003px 259.967px 289.517px 320.166px 350.869px " y="387.052px 387.052px 387.052px 387.052px 387.052px 387.052px 387.052px 387.052px 387.052px ">ream Team</tspan></text>
            </g>
            <g transform="matrix(1,0,0,1,-9.45817,0)">
                <text x="180.588px" y="497.052px" style="font-family:'ArialRoundedMTBold', 'Arial Rounded MT Bold', sans-serif;font-size:20px;fill:white;">Me<tspan x="209.013px 226.648px 239.088px 250.913px 259.114px " y="497.052px 497.052px 497.052px 497.052px 497.052px ">mbers</tspan></text>
                <text x="275.354px" y="497.052px" style="font-family:'ArialRoundedMTBold', 'Arial Rounded MT Bold', sans-serif;font-size:20px;fill:white;"><tspan x="275.354px 291.654px 304.194px 310.074px " y="497.052px 497.052px 497.052px 497.052px ">Only</tspan></text>
            </g>
            <rect x="163.921" y="469.719" width="158" height="43.333" style="fill:none;stroke:white;stroke-width:3.28px;"/>
            <g id="soccer_ball2" transform="matrix(1.33333,0,0,1.33333,241.732,131.965)">
                <g transform="matrix(1,0,0,1,-97,-97)">
                    <circle cx="97" cy="97" r="97"/>
                    <path d="M94,9.2C73.705,9.901 54.265,17.607 39,31L66,31L94,16.6L94,9.2ZM100,9.2L100,16.6L128,31L155,31C139.735,17.607 120.295,9.901 100,9.2ZM32.8,37C23.621,46.731 16.78,58.429 12.8,71.2L28.8,98.8L51.8,95.2L72.8,59L64.4,37L32.8,37ZM129.6,37L121.2,59L142.2,95.2L165.2,98.8L181,71.4C177.106,58.576 170.333,46.809 161.2,37L129.6,37ZM79.6,63L59.4,98.2L77.2,129L116.8,129L134.6,98.2L114.4,63L79.6,63ZM10.8,79.6C9.624,85.326 9.021,91.155 9,97C9.016,111.444 12.589,125.663 19.4,138.4L26.8,134L25.4,105L10.8,79.6ZM183.2,79.8L168.6,105L167.2,134L174.6,138.4C181.411,125.663 184.984,111.444 185,97C184.966,91.221 184.363,85.46 183.2,79.8ZM77.2,137L61.8,156L77.2,182.6C83.688,184.148 90.33,184.953 97,185C103.67,184.953 110.312,184.148 116.8,182.6L132.2,156L116.8,137L77.2,137ZM29.4,139.6L22.4,143.6C33.148,160.855 49.551,173.864 68.8,180.4L54.8,155.8L29.4,139.6ZM164.6,139.6L139.2,155.8L125.2,180.2C144.419,173.715 160.817,160.78 171.6,143.6L164.6,139.6Z" style="fill:white;fill-rule:nonzero;"/>
                </g>
            </g>
        </g>
    </g>
</svg>
